Coordinates
version=1
nRows=65
nColumns=12
inDegrees=yes

Units are S.I. units (second, meters, Newtons, ...)
Angles are in degrees

endheader
time	SC_y	SC_z	SC_x	AC_y	AC_z	AC_x	GH_y	GH_z	GH_yy	EL_x	PS_y
       0.0              -38.95         -2.328          35.77          63.73         -11.34           17.0          159.4          20.03          108.1          54.23          88.92
   0.02957              -38.95         -2.323          35.77          63.72         -11.34           17.0          159.4          20.04          108.0          54.23          88.93
   0.05913              -38.95         -2.317          35.77          63.72         -11.34           17.0          159.4          20.04          108.0          54.23          88.94
    0.0887              -38.95         -2.311          35.77          63.72         -11.34          16.99          159.4          20.04          108.0          54.23          88.95
    0.1183              -38.95         -2.304          35.77          63.72         -11.34          16.99          159.4          20.04          107.9          54.23          88.96
    0.1478              -38.95         -2.297          35.76          63.71         -11.34          16.99          159.3          20.04          107.9          54.24          88.97
    0.1774              -38.94          -2.29          35.76          63.71         -11.34          16.98          159.3          20.05          107.8          54.24          88.99
     0.207              -38.94         -2.282          35.76          63.71         -11.34          16.98          159.3          20.05          107.8          54.24           89.0
    0.2365              -38.94         -2.274          35.76          63.71         -11.34          16.98          159.2          20.05          107.7          54.24          89.02
    0.2661              -38.94         -2.265          35.75           63.7         -11.34          16.97          159.2          20.06          107.7          54.24          89.03
    0.2957              -38.94         -2.255          35.75           63.7         -11.34          16.97          159.1          20.06          107.6          54.25          89.05
    0.3252              -38.93         -2.245          35.75          63.69         -11.34          16.96          159.1          20.06          107.5          54.25          89.07
    0.3548              -38.93         -2.233          35.74          63.69         -11.33          16.95          159.1          20.07          107.4          54.25          89.09
    0.3844              -38.93         -2.221          35.74          63.68         -11.33          16.95          159.0          20.07          107.4          54.25          89.12
    0.4139              -38.93         -2.208          35.73          63.68         -11.33          16.94          158.9          20.08          107.3          54.26          89.14
    0.4435              -38.92         -2.194          35.73          63.67         -11.33          16.93          158.9          20.08          107.2          54.26          89.17
    0.4731              -38.92         -2.178          35.72          63.67         -11.33          16.93          158.8          20.09          107.1          54.27           89.2
    0.5026              -38.92         -2.161          35.72          63.66         -11.33          16.92          158.8           20.1          107.0          54.27          89.23
    0.5322              -38.91         -2.143          35.71          63.65         -11.33          16.91          158.7           20.1          106.8          54.27          89.26
    0.5618              -38.91         -2.123          35.71          63.64         -11.32           16.9          158.6          20.11          106.7          54.28           89.3
    0.5913               -38.9           -2.1           35.7          63.64         -11.32          16.89          158.5          20.12          106.6          54.28          89.34
    0.6209               -38.9         -2.076          35.69          63.63         -11.32          16.87          158.4          20.13          106.4          54.29          89.39
    0.6505              -38.89         -2.049          35.68          63.61         -11.32          16.86          158.3          20.14          106.2           54.3          89.44
      0.68              -38.88         -2.019          35.67           63.6         -11.31          16.85          158.2          20.15          106.0           54.3          89.49
    0.7096              -38.88         -1.986          35.66          63.59         -11.31          16.83          158.0          20.16          105.8          54.31          89.56
    0.7392              -38.87         -1.949          35.65          63.57         -11.31          16.81          157.9          20.18          105.5          54.32          89.62
    0.7687              -38.86         -1.907          35.63          63.56          -11.3          16.79          157.7          20.19          105.3          54.33           89.7
    0.7983              -38.85          -1.86          35.62          63.54          -11.3          16.76          157.5          20.21          105.0          54.34          89.79
    0.8278              -38.84         -1.808           35.6          63.52         -11.29          16.74          157.3          20.23          104.6          54.36          89.89
    0.8574              -38.82         -1.748          35.58          63.49         -11.29          16.71          157.0          20.25          104.2          54.37           90.0
     0.887              -38.81         -1.679          35.56          63.47         -11.28          16.67          156.7          20.28          103.7          54.39          90.13
    0.9165              -38.79         -1.601          35.53          63.43         -11.28          16.63          156.4          20.31          103.2          54.41          90.27
    0.9461              -38.77          -1.51           35.5           63.4         -11.27          16.58          156.0          20.34          102.6          54.43          90.44
    0.9757              -38.75         -1.405          35.47          63.35         -11.26          16.53          155.6          20.38          101.9          54.45          90.64
     1.005              -38.72         -1.281          35.42           63.3         -11.25          16.47          155.1          20.43          101.1          54.48          90.87
     1.035              -38.69         -1.136          35.38          63.25         -11.23          16.39          154.5          20.48          100.1          54.52          91.14
     1.064              -38.65        -0.9632          35.32          63.18         -11.22          16.31          153.7          20.55          98.96          54.56          91.46
     1.094              -38.61        -0.7561          35.25          63.09          -11.2           16.2          152.9          20.63          97.57          54.61          91.85
     1.124              -38.55        -0.5056          35.16          62.99         -11.17          16.07          151.8          20.72           95.9          54.67          92.32
     1.153              -38.48        -0.1996          35.06          62.87         -11.14          15.91          150.6          20.84          93.85          54.75          92.89
     1.183               -38.4          0.178          34.94          62.72         -11.11          15.72          149.0          20.98          91.33          54.84           93.6
     1.212              -38.29         0.6489          34.78          62.53         -11.07          15.48          147.0          21.15          88.18          54.95          94.47
     1.242              -38.16          1.242          34.58          62.29         -11.01          15.18          144.5          21.38          84.21           55.1          95.58
     1.271               -38.0          1.996          34.33          61.98         -10.94          14.79          141.4          21.66          79.17          55.28          96.99
     1.301              -37.78          2.962          34.01          61.59         -10.85           14.3          137.3          22.03          72.72          55.51          98.79
      1.33              -37.51            4.2          33.59           61.1         -10.73          13.66          132.2          22.49          64.44          55.81          101.1
      1.36              -37.16          5.783          33.06          60.46         -10.59          12.86          125.6          23.09          53.86           56.2          104.1
      1.39              -36.72          7.772           32.4          59.66          -10.4          11.84          117.3          23.84          40.56          56.68          107.8
     1.419              -36.19           10.2          31.59          58.68         -10.18           10.6          107.1          24.75          24.35          57.27          112.3
     1.449              -35.57          13.01          30.65          57.55         -9.914          9.161          95.38          25.81           5.56          57.95          117.5
     1.478              -34.89          16.05          29.63          56.32          -9.63          7.605          82.67          26.96         -14.78          58.69          123.2
     1.508              -34.22          19.09          28.61          55.09         -9.346          6.049          69.95           28.1         -35.13          59.43          128.9
     1.537               -33.6           21.9          27.67          53.96         -9.084          4.612          58.21          29.16         -53.91          60.11          134.2
     1.567              -33.07          24.33          26.86          52.98         -8.858          3.372          48.08          30.08         -70.12           60.7          138.7
     1.597              -32.63          26.32           26.2          52.18         -8.673          2.355          39.77          30.83         -83.42          61.18          142.4
     1.626              -32.28           27.9          25.67          51.54         -8.525          1.546          33.16          31.42          -94.0          61.56          145.4
     1.656              -32.01          29.14          25.25          51.04          -8.41         0.9125          27.99          31.89         -102.3          61.86          147.7
     1.685              -31.79           30.1          24.93          50.65          -8.32         0.4189          23.95          32.25         -108.7           62.1          149.5
     1.715              -31.63          30.86          24.68          50.35         -8.249        0.03324           20.8          32.54         -113.8          62.28          150.9
     1.744              -31.49          31.45          24.48          50.11         -8.194        -0.2701          18.32          32.76         -117.7          62.43          152.0
     1.774              -31.39          31.92          24.32          49.92          -8.15        -0.5109          16.36          32.94         -120.9          62.54          152.9
     1.804              -31.31           32.3          24.19          49.77         -8.115        -0.7041          14.78          33.08         -123.4          62.63          153.6
     1.833              -31.24          32.61          24.09          49.64         -8.087        -0.8605           13.5           33.2         -125.5          62.71          154.1
     1.863              -31.18          32.86          24.01          49.54         -8.063        -0.9886          12.45          33.29         -127.1          62.77          154.6
     1.892              -31.14          33.06          23.94          49.46         -8.044         -1.094          11.59          33.37         -128.5          62.82          155.0
